# xmcd CD database file
#
# Track frame offsets:
#	150
#	7267
#	30896
#	46055
#	61157
#	83477
#	108998
#	130293
#	146811
#	164704
#	191259
#	225073
#	249826
#	280566
#	303132
#
# Disc length: 4663 seconds
#
# Revision: 1
# Processed by: cddbd v1.5.1PL2 Copyright (c) Steve Scherf et al.
# Submitted via: CDex 1.60beta1-cs1
#
DISCID=ad12350f
DTITLE=Rohff - Au-Delà De Mes Limites - CD2
DYEAR=2005
DGENRE=Rap
TTITLE0=Intro
TTITLE1=Seul contre tous
TTITLE2=En mode
TTITLE3=En mode 2
TTITLE4=La violence
TTITLE5=Accepte-moi comme je suis
TTITLE6=Le club des métaphores
TTITLE7=Trop dangereux
TTITLE8=Bonhomme [feat. Ikbal Vockal]
TTITLE9=J't'ai pas attendu [feat. Jam]
TTITLE10=Bonne journée
TTITLE11=Toujours
TTITLE12=Enculé de ton clash [feat. Soundkail]
TTITLE13=Fumer un mec
TTITLE14=Regretté
EXTD=YEAR: 2005
EXTT0=
EXTT1=
EXTT2=
EXTT3=
EXTT4=
EXTT5=
EXTT6=
EXTT7=
EXTT8=
EXTT9=
EXTT10=
EXTT11=
EXTT12=
EXTT13=
EXTT14=
PLAYORDER=
